<?xml version="1.0" encoding="UTF-8"?>
<svg width="141px" height="57px" viewBox="0 0 141 57" version="1.1" xmlns="http://www.w3.org/2000/svg" xmlns:xlink="http://www.w3.org/1999/xlink">
    <!-- Generator: Sketch 40.3 (33839) - http://www.bohemiancoding.com/sketch -->
    <title>Artboard</title>
    <desc>Created with Sketch.</desc>
    <defs></defs>
    <g id="Page-1" stroke="none" stroke-width="1" fill="none" fill-rule="evenodd" opacity="0.9">
        <g id="Artboard" fill="#FFFFFF">
            <g id="Outlined">
                <path d="M0,33.621 L14.799,33.621 C14.811,37.717 16.395,37.272 19.848,37.275 L33.289,37.275 C37.263,37.292 38.787,37.299 38.786,34.451 C38.785,30.876 36.496,31.826 21.546,31.82 C1.218,31.812 0.061,28.304 0.061,16.072 C0.061,7.07 0.791,0.129 17.833,0.129 L36.7,0.129 C52.282,0.129 53.742,6.108 53.742,14.835 L53.742,17.538 L38.787,17.48 C38.787,13.839 38.432,13.12 32.224,13.12 L19.244,13.12 C17.674,13.184 14.265,13.022 14.267,15.69 C14.27,19.647 14.924,19.12 28.062,19.136 C45.557,19.157 53.722,18.696 53.722,33.667 C53.722,47.066 49.512,50.424 31.557,50.424 L17.225,50.456 C4.93,50.456 0,47.845 0,37.057 L0,33.621" id="Fill-1"></path>
                <polygon id="Fill-4" points="53.742 50.475 69.031 50.475 69.031 0.112 53.742 0.112"></polygon>
                <polygon id="Fill-5" points="71.773 50.475 87.062 50.475 87.062 0.112 71.773 0.112"></polygon>
                <polyline id="Fill-6" points="85.793 0.112 103.502 0.112 113.257 13.256 122.873 0.112 140.653 0.112 122.112 25.431 140.514 50.475 122.873 50.475 113.257 37.4 103.71 50.475 85.999 50.475 104.403 25.431 85.793 0.112"></polyline>
                <polyline id="Fill-7" points="2.328 54.122 2.328 56.97 1.677 56.97 1.677 54.122 0.687 54.122 0.687 53.539 3.353 53.539 3.353 54.122 2.328 54.122"></polyline>
                <path d="M7.68,55.266 L8.615,55.266 C8.837,55.266 8.985,55.226 9.059,55.146 C9.131,55.066 9.168,54.907 9.168,54.667 C9.168,54.423 9.136,54.265 9.073,54.193 C9.011,54.122 8.873,54.087 8.66,54.087 L7.68,54.087 L7.68,55.266 L7.68,55.266 Z M7.029,56.97 L7.029,53.539 L8.72,53.539 C9.141,53.539 9.431,53.611 9.59,53.758 C9.749,53.903 9.829,54.167 9.829,54.549 C9.829,54.896 9.789,55.133 9.709,55.261 C9.63,55.388 9.467,55.476 9.221,55.524 L9.221,55.547 C9.601,55.57 9.791,55.793 9.791,56.213 L9.791,56.97 L9.14,56.97 L9.14,56.344 C9.14,55.99 8.966,55.814 8.617,55.814 L7.68,55.814 L7.68,56.97 L7.029,56.97 L7.029,56.97 Z" id="Fill-8"></path>
                <path d="M15.618,55.831 L15.025,54.044 L14.442,55.831 L15.618,55.831 L15.618,55.831 Z M15.769,56.312 L14.289,56.312 L14.075,56.97 L13.386,56.97 L14.527,53.539 L15.505,53.539 L16.664,56.97 L15.988,56.97 L15.769,56.312 L15.769,56.312 Z" id="Fill-9"></path>
                <polygon id="Fill-10" points="20.306 56.97 20.957 56.97 20.957 53.539 20.306 53.539"></polygon>
                <polyline id="Fill-11" points="25.562 53.539 25.562 56.387 27.171 56.387 27.171 56.97 24.912 56.97 24.912 53.539 25.562 53.539"></polyline>
                <polyline id="Fill-12" points="31.43 54.087 31.43 54.972 33.039 54.972 33.039 55.451 31.43 55.451 31.43 56.422 33.142 56.422 33.142 56.97 30.779 56.97 30.779 53.539 33.126 53.539 33.126 54.087 31.43 54.087"></polyline>
                <path d="M37.624,55.266 L38.559,55.266 C38.781,55.266 38.929,55.226 39.002,55.146 C39.075,55.066 39.112,54.907 39.112,54.667 C39.112,54.423 39.08,54.265 39.017,54.193 C38.955,54.122 38.816,54.087 38.604,54.087 L37.624,54.087 L37.624,55.266 L37.624,55.266 Z M36.973,56.97 L36.973,53.539 L38.664,53.539 C39.085,53.539 39.374,53.611 39.534,53.758 C39.693,53.903 39.772,54.167 39.772,54.549 C39.772,54.896 39.733,55.133 39.653,55.261 C39.574,55.388 39.411,55.476 39.165,55.524 L39.165,55.547 C39.545,55.57 39.735,55.793 39.735,56.213 L39.735,56.97 L39.084,56.97 L39.084,56.344 C39.084,55.99 38.91,55.814 38.561,55.814 L37.624,55.814 L37.624,56.97 L36.973,56.97 L36.973,56.97 Z" id="Fill-13"></path>
                <path d="M52.281,53.539 L52.281,56.97 L51.63,56.97 L51.63,55.1 C51.63,54.95 51.634,54.781 51.643,54.592 L51.668,54.082 L51.647,54.082 L51.57,54.32 L51.494,54.56 C51.424,54.773 51.37,54.932 51.331,55.034 L50.577,56.97 L49.984,56.97 L49.222,55.05 C49.18,54.943 49.125,54.785 49.056,54.574 L48.9,54.1 L48.88,54.1 L48.893,54.348 L48.905,54.6 C48.915,54.794 48.92,54.961 48.92,55.1 L48.92,56.97 L48.269,56.97 L48.269,53.539 L49.33,53.539 L49.943,55.127 C49.985,55.238 50.04,55.397 50.109,55.603 L50.185,55.841 L50.263,56.077 L50.285,56.077 L50.358,55.841 L50.434,55.605 C50.496,55.405 50.549,55.248 50.594,55.132 L51.198,53.539 L52.281,53.539" id="Fill-14"></path>
                <path d="M58.437,53.539 L59.088,53.539 L59.088,55.821 C59.088,56.299 58.997,56.614 58.813,56.769 C58.629,56.923 58.254,57 57.688,57 C57.09,57 56.698,56.927 56.512,56.781 C56.326,56.636 56.233,56.328 56.233,55.858 L56.233,53.539 L56.884,53.539 L56.884,55.858 C56.884,56.111 56.929,56.272 57.019,56.34 C57.11,56.408 57.323,56.441 57.658,56.441 C58.001,56.441 58.217,56.407 58.305,56.339 C58.393,56.271 58.437,56.102 58.437,55.834 L58.437,53.539" id="Fill-15"></path>
                <path d="M65.581,54.539 L64.945,54.539 C64.942,54.507 64.94,54.483 64.94,54.469 C64.925,54.276 64.882,54.155 64.812,54.106 C64.742,54.056 64.576,54.031 64.314,54.031 C64.006,54.031 63.805,54.06 63.71,54.117 C63.615,54.174 63.568,54.294 63.568,54.477 C63.568,54.692 63.606,54.822 63.684,54.866 C63.761,54.909 64.015,54.943 64.448,54.967 C64.959,54.995 65.289,55.067 65.439,55.186 C65.589,55.303 65.664,55.546 65.664,55.917 C65.664,56.372 65.576,56.667 65.4,56.8 C65.224,56.934 64.836,57 64.236,57 C63.697,57 63.339,56.935 63.162,56.804 C62.985,56.673 62.897,56.408 62.897,56.01 L62.894,55.884 L63.528,55.884 L63.53,55.957 C63.53,56.196 63.572,56.343 63.656,56.396 C63.74,56.45 63.968,56.478 64.342,56.478 C64.634,56.478 64.82,56.446 64.9,56.384 C64.98,56.322 65.021,56.179 65.021,55.954 C65.021,55.788 64.99,55.678 64.929,55.624 C64.868,55.569 64.736,55.536 64.533,55.524 L64.174,55.502 C63.631,55.47 63.284,55.395 63.133,55.275 C62.982,55.156 62.907,54.901 62.907,54.509 C62.907,54.108 62.998,53.842 63.18,53.708 C63.361,53.575 63.725,53.509 64.269,53.509 C64.785,53.509 65.133,53.569 65.312,53.692 C65.492,53.814 65.581,54.053 65.581,54.408 L65.581,54.539" id="Fill-16"></path>
                <polygon id="Fill-17" points="69.462 56.97 70.113 56.97 70.113 53.539 69.462 53.539"></polygon>
                <path d="M76.187,55.746 L76.84,55.746 L76.84,55.863 C76.84,56.342 76.753,56.65 76.579,56.79 C76.405,56.93 76.019,57 75.422,57 C74.746,57 74.33,56.89 74.173,56.668 C74.017,56.447 73.94,55.855 73.94,54.894 C73.94,54.327 74.045,53.955 74.256,53.776 C74.467,53.598 74.909,53.509 75.581,53.509 C76.07,53.509 76.397,53.582 76.561,53.729 C76.725,53.875 76.807,54.166 76.807,54.602 L76.81,54.68 L76.157,54.68 L76.157,54.592 C76.157,54.367 76.114,54.224 76.03,54.161 C75.945,54.098 75.752,54.066 75.451,54.066 C75.046,54.066 74.804,54.116 74.722,54.215 C74.641,54.314 74.601,54.607 74.601,55.095 C74.601,55.752 74.637,56.141 74.71,56.261 C74.783,56.382 75.019,56.441 75.418,56.441 C75.741,56.441 75.951,56.408 76.047,56.342 C76.143,56.274 76.192,56.127 76.192,55.899 L76.187,55.746" id="Fill-18"></path>
                <path d="M87.154,55.831 L86.561,54.044 L85.978,55.831 L87.154,55.831 L87.154,55.831 Z M87.305,56.312 L85.825,56.312 L85.611,56.97 L84.922,56.97 L86.063,53.539 L87.041,53.539 L88.2,56.97 L87.524,56.97 L87.305,56.312 L87.305,56.312 Z" id="Fill-19"></path>
                <path d="M95.028,53.539 L95.028,56.97 L93.924,56.97 L92.944,55.087 C92.895,54.993 92.819,54.829 92.715,54.595 L92.605,54.348 L92.497,54.102 L92.471,54.102 L92.482,54.328 L92.489,54.552 L92.495,55.002 L92.495,56.97 L91.843,56.97 L91.843,53.539 L92.947,53.539 L93.839,55.278 C93.917,55.433 94.009,55.619 94.113,55.839 L94.244,56.117 L94.374,56.399 L94.397,56.399 L94.389,56.178 L94.382,55.957 L94.376,55.515 L94.376,53.539 L95.028,53.539" id="Fill-20"></path>
                <path d="M99.628,56.422 L100.555,56.422 C100.867,56.422 101.069,56.351 101.16,56.207 C101.251,56.063 101.297,55.747 101.297,55.258 C101.297,54.752 101.256,54.431 101.173,54.293 C101.091,54.155 100.899,54.087 100.595,54.087 L99.628,54.087 L99.628,56.422 L99.628,56.422 Z M98.977,56.97 L98.977,53.539 L100.664,53.539 C101.143,53.539 101.478,53.644 101.67,53.853 C101.862,54.062 101.958,54.43 101.958,54.954 C101.958,55.811 101.881,56.36 101.727,56.604 C101.573,56.848 101.225,56.97 100.684,56.97 L98.977,56.97 L98.977,56.97 Z" id="Fill-21"></path>
                <path d="M112.958,54.539 L112.323,54.539 C112.32,54.507 112.318,54.483 112.318,54.469 C112.302,54.276 112.26,54.155 112.19,54.106 C112.12,54.056 111.954,54.031 111.692,54.031 C111.383,54.031 111.182,54.06 111.087,54.117 C110.993,54.174 110.946,54.294 110.946,54.477 C110.946,54.692 110.984,54.822 111.061,54.866 C111.138,54.909 111.393,54.943 111.825,54.967 C112.336,54.995 112.667,55.067 112.817,55.186 C112.966,55.303 113.042,55.546 113.042,55.917 C113.042,56.372 112.954,56.667 112.778,56.8 C112.602,56.934 112.213,57 111.614,57 C111.075,57 110.716,56.935 110.54,56.804 C110.363,56.673 110.274,56.408 110.274,56.01 L110.272,55.884 L110.905,55.884 L110.908,55.957 C110.908,56.196 110.95,56.343 111.034,56.396 C111.117,56.45 111.346,56.478 111.719,56.478 C112.011,56.478 112.197,56.446 112.278,56.384 C112.358,56.322 112.398,56.179 112.398,55.954 C112.398,55.788 112.368,55.678 112.306,55.624 C112.246,55.569 112.114,55.536 111.911,55.524 L111.551,55.502 C111.008,55.47 110.662,55.395 110.51,55.275 C110.36,55.156 110.285,54.901 110.285,54.509 C110.285,54.108 110.375,53.842 110.557,53.708 C110.739,53.575 111.102,53.509 111.647,53.509 C112.163,53.509 112.51,53.569 112.69,53.692 C112.869,53.814 112.958,54.053 112.958,54.408 L112.958,54.539" id="Fill-22"></path>
                <path d="M118.215,54.066 C117.778,54.066 117.522,54.123 117.449,54.235 C117.375,54.348 117.338,54.736 117.338,55.401 C117.338,55.894 117.381,56.19 117.467,56.291 C117.553,56.392 117.808,56.441 118.23,56.441 C118.634,56.441 118.876,56.386 118.957,56.272 C119.037,56.159 119.078,55.816 119.078,55.243 C119.078,54.668 119.04,54.328 118.963,54.224 C118.886,54.119 118.637,54.066 118.215,54.066 L118.215,54.066 Z M118.265,53.509 C118.889,53.509 119.291,53.612 119.469,53.819 C119.649,54.026 119.739,54.489 119.739,55.208 C119.739,55.993 119.648,56.489 119.468,56.693 C119.288,56.897 118.852,57 118.16,57 C117.537,57 117.133,56.899 116.951,56.697 C116.768,56.495 116.677,56.051 116.677,55.363 C116.677,54.546 116.766,54.032 116.946,53.822 C117.125,53.613 117.565,53.509 118.265,53.509 L118.265,53.509 Z" id="Fill-23"></path>
                <path d="M125.731,53.539 L126.381,53.539 L126.381,55.821 C126.381,56.299 126.29,56.614 126.107,56.769 C125.923,56.923 125.548,57 124.982,57 C124.383,57 123.992,56.927 123.805,56.781 C123.62,56.636 123.526,56.328 123.526,55.858 L123.526,53.539 L124.177,53.539 L124.177,55.858 C124.177,56.111 124.222,56.272 124.313,56.34 C124.404,56.408 124.617,56.441 124.952,56.441 C125.295,56.441 125.511,56.407 125.599,56.339 C125.687,56.271 125.731,56.102 125.731,55.834 L125.731,53.539" id="Fill-24"></path>
                <path d="M133.513,53.539 L133.513,56.97 L132.41,56.97 L131.429,55.087 C131.38,54.993 131.304,54.829 131.201,54.595 L131.09,54.348 L130.982,54.102 L130.957,54.102 L130.967,54.328 L130.974,54.552 L130.98,55.002 L130.98,56.97 L130.329,56.97 L130.329,53.539 L131.432,53.539 L132.325,55.278 C132.403,55.433 132.495,55.619 132.598,55.839 L132.729,56.117 L132.86,56.399 L132.882,56.399 L132.868,55.957 L132.862,55.515 L132.862,53.539 L133.513,53.539" id="Fill-25"></path>
                <path d="M138.114,56.422 L139.041,56.422 C139.352,56.422 139.554,56.351 139.645,56.207 C139.737,56.063 139.783,55.747 139.783,55.258 C139.783,54.752 139.742,54.431 139.659,54.293 C139.577,54.155 139.384,54.087 139.081,54.087 L138.114,54.087 L138.114,56.422 L138.114,56.422 Z M137.462,56.97 L137.462,53.539 L139.149,53.539 C139.628,53.539 139.963,53.644 140.156,53.853 C140.347,54.062 140.444,54.43 140.444,54.954 C140.444,55.811 140.367,56.36 140.212,56.604 C140.058,56.848 139.71,56.97 139.169,56.97 L137.462,56.97 L137.462,56.97 Z" id="Fill-26"></path>
            </g>
        </g>
    </g>
</svg>