<?xml version="1.0" encoding="UTF-8"?>
<svg width="141px" height="51px" viewBox="0 0 141 51" version="1.1" xmlns="http://www.w3.org/2000/svg" xmlns:xlink="http://www.w3.org/1999/xlink">
    <!-- Generator: Sketch 40.3 (33839) - http://www.bohemiancoding.com/sketch -->
    <title>Artboard</title>
    <desc>Created with Sketch.</desc>
    <defs></defs>
    <g id="Page-1" stroke="none" stroke-width="1" fill="none" fill-rule="evenodd">
        <g id="Artboard" fill="#5D8FC9">
            <g id="SIIX-Logo-(no-text)">
                <path d="M0,34.146 L14.799,34.146 C14.811,38.242 16.395,37.797 19.848,37.801 L33.289,37.801 C37.263,37.817 38.787,37.824 38.786,34.977 C38.785,31.401 36.496,32.352 21.546,32.346 C1.218,32.337 0.061,28.829 0.061,16.598 C0.061,7.596 0.791,0.655 17.833,0.655 L36.7,0.655 C52.282,0.655 53.742,6.633 53.742,15.36 L53.742,18.063 L38.787,18.005 C38.787,14.364 38.432,13.645 32.224,13.645 L19.244,13.645 C17.674,13.709 14.265,13.548 14.267,16.215 C14.27,20.173 14.924,19.645 28.062,19.662 C45.557,19.682 53.722,19.222 53.722,34.192 C53.722,47.592 49.512,50.949 31.557,50.949 L17.225,50.981 C4.93,50.981 0,48.37 0,37.582 L0,34.146" id="Fill-1"></path>
                <polygon id="Fill-4" points="53.742 51 69.031 51 69.031 0.637 53.742 0.637"></polygon>
                <polygon id="Fill-5" points="71.773 51 87.062 51 87.062 0.637 71.773 0.637"></polygon>
                <polyline id="Fill-6" points="85.793 0.637 103.502 0.637 113.257 13.781 122.873 0.637 140.653 0.637 122.112 25.956 140.514 51 122.873 51 113.257 37.926 103.71 51 85.999 51 104.403 25.956 85.793 0.637"></polyline>
            </g>
        </g>
    </g>
</svg>