<?xml version="1.0" encoding="utf-8"?>
<!-- Generator: Adobe Illustrator 19.0.0, SVG Export Plug-In . SVG Version: 6.00 Build 0)  -->
<svg version="1.1" id="Layer_1" xmlns="http://www.w3.org/2000/svg" xmlns:xlink="http://www.w3.org/1999/xlink" x="0px" y="0px"
	 viewBox="0 0 130.4 28" style="enable-background:new 0 0 130.4 28;" xml:space="preserve">
<style type="text/css">
	.st0{fill:#FFFFFF;}
</style>
<g id="XMLID_94_">
	<path id="XMLID_95_" class="st0" d="M17.6,19.3c0,0.7-0.4,1-1.2,1c-0.8,0-1.2-0.4-1.2-1v-4.2c0-1.9-0.7-3-1.9-3c-1.2,0-2,0.9-2,2.9
		v4.3c0,0.7-0.4,1-1.2,1s-1.2-0.4-1.2-1v-4.5c0-1.7-0.6-2.7-1.9-2.7c-1.3,0-2,1-2,2.8v4.4c0,0.7-0.4,1-1.2,1s-1.2-0.4-1.2-1.2v-7.7
		c0-0.7,0.4-1.1,1.3-1.1c0.6,0,1.4,0.3,1.9,0.3c0.9,0,1.5-0.5,2.6-0.5c1.5,0,2,0.9,3,0.9c0.8,0,1.5-0.9,3.3-0.9c2.1,0,3,1,3,2.9
		V19.3z"/>
	<path id="XMLID_97_" class="st0" d="M27.8,15.5h-0.9h-3.2c-0.9,0-1.4,0.4-1.4,1c0,0.9,1,1.8,2.1,1.8c1.7,0,2-1.4,3-1.4
		c0.6,0,1.4,0.6,1.4,1c0,0.6-1.4,2.4-4.4,2.4c-2.9,0-5.1-1.8-5.1-5.2c0-4.1,2.5-5.6,5.1-5.6c4.4,0,4.9,3.9,4.9,4.7
		C29.2,15.3,28.8,15.5,27.8,15.5z M24.1,13.9c1.3,0,2-0.3,2-0.8c0-0.6-0.8-1.4-1.8-1.4c-0.8,0-1.8,0.6-1.8,1.3
		C22.4,13.6,23,13.9,24.1,13.9z"/>
	<path id="XMLID_100_" class="st0" d="M34.7,20.6c-1.7,0-4.3-1-4.3-5.3c0-4.3,2.6-5.3,4.3-5.3c1.2,0,1.6,0.3,2.3,0.3
		c0.6,0,0.8-0.6,0.8-1.4l0-1c0-0.7,0.3-1.2,0.9-1.2h0.8c0.6,0,1,0.5,1,1.6v10.8c0,0.8-0.4,1.3-1.3,1.3c-1,0-1.2-0.3-1.8-0.3
		C36.3,20,36.2,20.6,34.7,20.6z M35.4,18.7c1.7,0,2.4-1.5,2.4-3.6c0-2.2-1-3.2-2.3-3.2c-0.8,0-2.4,0.4-2.4,3.4
		C33.1,17.7,34.3,18.7,35.4,18.7z"/>
	<path id="XMLID_103_" class="st0" d="M44,8.5c-1.2,0-1.6-0.5-1.6-1.2c0-1,0.7-1.3,1.6-1.3c1.2,0,1.6,0.5,1.6,1.2
		C45.6,8.2,44.9,8.5,44,8.5z M45.7,11.4v7.5c0,1-0.5,1.4-1.6,1.4c-1.4,0-1.6-0.6-1.6-1.8v-7.5c0-0.9,0.5-1.4,1.2-1.4h0.7
		C45.2,9.7,45.7,10.3,45.7,11.4z"/>
	<path id="XMLID_106_" class="st0" d="M55.3,20.2c-0.8,0-1.2-0.4-1.8-0.4c-0.9,0-1.6,0.6-2.9,0.6c-2.2,0-3.4-1.3-3.4-3
		c0-1.8,1.4-3.2,4.7-3.6c1.3-0.2,1.7-0.7,1.7-1.1c0-0.8-0.6-1.3-1.4-1.3c-1.5,0-1.4,1.3-3.1,1.3c-0.6,0-1.2-0.1-1.2-0.8
		c0-0.7,0.8-2.2,4-2.2c2.8,0,4.5,0.6,4.5,3.5v6C56.4,20,55.9,20.2,55.3,20.2z M51.5,18.5c1,0,2.1-1,2.1-2c0-0.5-0.3-1-1-1
		c-0.8,0-2.5,0.6-2.5,1.7C50.1,17.9,50.6,18.5,51.5,18.5z"/>
	<path id="XMLID_109_" class="st0" d="M68.2,14.9c0,3.4-1.5,5.5-4.3,5.5c-0.8,0-1.6-0.3-1.8-0.3c-0.6,0-1.1,0.4-1.1,1.6
		c0,1.5-0.2,2-1.3,2c-1,0-1.3-0.4-1.3-1.4V11.2c0-0.8,0.4-1.2,1.2-1.2c0.7,0,1.2,0.2,1.7,0.2c0.8,0,1.1-0.5,2.5-0.5
		C66.5,9.8,68.2,11.8,68.2,14.9z M63.3,18.5c2.2,0,2.4-2.8,2.4-3.6c0-1.8-0.8-3.2-2.3-3.2C62,11.7,61,13,61,15.1
		C61,17.1,61.9,18.5,63.3,18.5z"/>
	<path id="XMLID_112_" class="st0" d="M74.9,9.9c0.7,0,1,0.4,1,1.2c0,1-0.2,1.4-1.3,1.7c-1,0.3-1.6,1-1.6,2v4.1c0,1-0.4,1.5-1.2,1.5
		H71c-0.8,0-1.2-0.6-1.2-1.6v-7.5c0-1,0.3-1.6,1.5-1.6c1.2,0,1.7,0.4,2.2,0.4C74.2,10.1,74.3,9.9,74.9,9.9z"/>
	<path id="XMLID_114_" class="st0" d="M85.3,15.5h-0.9h-3.2c-0.9,0-1.4,0.4-1.4,1c0,0.9,1,1.8,2.1,1.8c1.7,0,2-1.4,3-1.4
		c0.6,0,1.4,0.6,1.4,1c0,0.6-1.4,2.4-4.4,2.4c-2.9,0-5.1-1.8-5.1-5.2c0-4.1,2.5-5.6,5.1-5.6c4.4,0,4.9,3.9,4.9,4.7
		C86.7,15.3,86.3,15.5,85.3,15.5z M81.6,13.9c1.3,0,2-0.3,2-0.8c0-0.6-0.8-1.4-1.8-1.4c-0.8,0-1.8,0.6-1.8,1.3
		C79.9,13.6,80.5,13.9,81.6,13.9z"/>
	<path id="XMLID_117_" class="st0" d="M93.6,11.7c0.4-1.5,0.6-1.8,1.9-1.8c0.7,0,1.7,0.1,1.2,1.6l-2.6,7.5c-0.3,0.9-0.8,1.4-1.6,1.4
		h-0.9c-0.5,0-1.2-0.4-1.5-1.3l-2.5-7.3c-0.5-1.5,0.1-1.8,0.7-1.8h0.9c0.7,0,1.2,0.4,1.4,1.2l0.9,3.4c0.2,0.7,0.4,1,0.8,1
		c0.2,0,0.6-0.4,0.7-1L93.6,11.7z"/>
	<path id="XMLID_119_" class="st0" d="M99.7,8.5c-1.2,0-1.6-0.5-1.6-1.2c0-1,0.7-1.3,1.6-1.3c1.2,0,1.6,0.5,1.6,1.2
		C101.3,8.2,100.6,8.5,99.7,8.5z M101.3,11.4v7.5c0,1-0.5,1.4-1.6,1.4c-1.4,0-1.6-0.6-1.6-1.8v-7.5c0-0.9,0.5-1.4,1.2-1.4h0.7
		C100.9,9.7,101.3,10.3,101.3,11.4z"/>
	<path id="XMLID_122_" class="st0" d="M111.6,15.5h-0.9h-3.2c-0.9,0-1.4,0.4-1.4,1c0,0.9,1,1.8,2.1,1.8c1.7,0,2-1.4,3-1.4
		c0.6,0,1.4,0.6,1.4,1c0,0.6-1.4,2.4-4.4,2.4c-2.9,0-5.1-1.8-5.1-5.2c0-4.1,2.5-5.6,5.1-5.6c4.4,0,4.9,3.9,4.9,4.7
		C112.9,15.3,112.5,15.5,111.6,15.5z M107.8,13.9c1.3,0,2-0.3,2-0.8c0-0.6-0.8-1.4-1.8-1.4c-0.8,0-1.8,0.6-1.8,1.3
		C106.2,13.6,106.7,13.9,107.8,13.9z"/>
	<path id="XMLID_125_" class="st0" d="M119.3,11.4c0.2-1,0.8-1.2,1.7-1.2c1,0,1.6,0.2,1.8,1.4l0.5,3c0.2,1.3,0.6,1.4,0.9,1.4
		c0.4,0,0.6-0.3,0.8-0.9l0.8-3.2c0.3-1.4,0.7-1.6,1.6-1.6c1.2,0,1.3,0.6,0.9,1.6l-2.5,7.3c-0.2,0.8-0.8,1.1-1.7,1.1
		c-1.2,0-1.4-0.5-1.6-1.6l-0.7-2.9c-0.1-0.4-0.4-0.8-0.8-0.8c-0.6,0-0.7,0.7-0.8,1l-0.6,2.6c-0.3,1.2-0.6,1.6-1.7,1.6
		c-0.8,0-1.4-0.3-1.7-1.2l-2.2-7.5c-0.3-1.2,0.2-1.4,1-1.4c0.9,0,1.3,0.4,1.5,1.2l0.6,3.2c0.2,1,0.5,1.3,0.8,1.3
		c0.4,0,0.7-0.4,0.8-1.3L119.3,11.4z"/>
</g>
</svg>
